<svg xmlns="http://www.w3.org/2000/svg" viewBox="0 0 512 512" role="img" aria-labelledby="title desc">
  <title id="title">TokenBoard logo</title>
  <desc id="desc">A rounded dashboard tile with a lime TB monogram and token usage bars.</desc>
  <defs>
    <linearGradient id="panel" x1="96" y1="48" x2="416" y2="464" gradientUnits="userSpaceOnUse">
      <stop offset="0" stop-color="#272a22"/>
      <stop offset="1" stop-color="#11130f"/>
    </linearGradient>
    <linearGradient id="lime" x1="132" y1="108" x2="380" y2="404" gradientUnits="userSpaceOnUse">
      <stop offset="0" stop-color="#ecfccb"/>
      <stop offset="0.42" stop-color="#bef264"/>
      <stop offset="1" stop-color="#84cc16"/>
    </linearGradient>
    <filter id="soft-shadow" x="-20%" y="-20%" width="140%" height="140%">
      <feDropShadow dx="0" dy="18" stdDeviation="18" flood-color="#000000" flood-opacity="0.35"/>
    </filter>
  </defs>

  <rect width="512" height="512" rx="104" fill="#090a08"/>
  <rect x="42" y="42" width="428" height="428" rx="82" fill="url(#panel)" filter="url(#soft-shadow)"/>
  <rect x="66" y="66" width="380" height="380" rx="62" fill="none" stroke="#bef264" stroke-opacity="0.16" stroke-width="4"/>

  <g opacity="0.42" stroke="#f7fee7" stroke-width="2">
    <path d="M118 166H394"/>
    <path d="M118 246H394"/>
    <path d="M118 326H394"/>
    <path d="M176 118V386"/>
    <path d="M256 118V386"/>
    <path d="M336 118V386"/>
  </g>

  <g fill="url(#lime)">
    <path d="M130 118H282V164H229V382H181V164H130V118Z"/>
    <path d="M280 118H352C389 118 415 143 415 178C415 200 404 218 386 228C410 238 425 260 425 287C425 324 397 350 356 350H280V118ZM328 164V211H348C360 211 368 201 368 187C368 173 360 164 347 164H328ZM328 253V304H354C369 304 377 294 377 278C377 263 368 253 353 253H328Z"/>
  </g>

  <g fill="#11130f">
    <rect x="145" y="296" width="18" height="54" rx="9"/>
    <rect x="185" y="260" width="18" height="90" rx="9"/>
    <rect x="225" y="224" width="18" height="126" rx="9"/>
  </g>

  <path d="M120 390H392" stroke="#bef264" stroke-opacity="0.72" stroke-width="12" stroke-linecap="round"/>
</svg>
